<svg xmlns="http://www.w3.org/2000/svg" viewBox="0 0 900 420" role="img" aria-labelledby="title desc">
  <title id="title">pc-parallax logo</title>
  <desc id="desc">A minimal logo showing layered mountains, a sun, and the pc-parallax wordmark.</desc>
  <rect width="900" height="420" rx="32" fill="#f7f3ea"/>
  <g transform="translate(120 74)">
    <circle cx="502" cy="74" r="52" fill="#f6c65b"/>
    <path d="M0 210 154 82l82 70 154-126 238 184Z" fill="#14344c"/>
    <path d="M146 210 330 92l276 118Z" fill="#2f7fa5"/>
    <path d="M0 232c104-32 203-32 306 0s205 32 306 0v58c-104 32-203 32-306 0S101 258 0 290Z" fill="#62bee4"/>
    <path d="M0 274c104-32 203-32 306 0s205 32 306 0v50H0Z" fill="#0b4678"/>
  </g>
  <text x="450" y="365" text-anchor="middle" font-family="system-ui, -apple-system, BlinkMacSystemFont, 'Segoe UI', sans-serif" font-size="72" font-weight="700" letter-spacing="-3" fill="#1d2433">pc-parallax</text>
</svg>
